<?xml version="1.0" encoding="utf-8"?>
<!-- Generator: Adobe Illustrator 26.1.0, SVG Export Plug-In . SVG Version: 6.00 Build 0)  -->
<svg version="1.1" id="Calque_1" xmlns="http://www.w3.org/2000/svg" xmlns:xlink="http://www.w3.org/1999/xlink" x="0px" y="0px"
	 viewBox="0 0 2000 2000" style="enable-background:new 0 0 2000 2000;" xml:space="preserve">
<!-- <style type="text/css">
	.st0{fill:#354C9A;}
	.st1{fill:#344C9A;}
	.st2{fill:#314A7E;}
	.st3{fill:#FFFFFF;}
	.st4{fill:#005983;}
	.st5{fill:#E52D27;}
	.st6{fill-rule:evenodd;clip-rule:evenodd;fill:#FFFFFF;}
</style> -->
<g>
	
		<ellipse transform="matrix(0.7071 -0.7071 0.7071 0.7071 -414.2119 999.9993)" class="st4" cx="1000" cy="1000" rx="1000" ry="1000"/>
	<g>
		<path class="st3" d="M1574.7,1079.8v398h-230.7v-371.3c0-93.3-33.3-156.9-116.9-156.9c-63.8,0-101.6,42.9-118.4,84.4
			c-6.1,14.8-7.6,35.4-7.6,56.2v387.6H870.3c0,0,3.1-628.9,0-694h230.8v98.3c-0.5,0.8-1.1,1.5-1.5,2.3h1.5v-2.3
			c30.7-47.2,85.4-114.6,208-114.6C1460.8,767.5,1574.7,866.7,1574.7,1079.8L1574.7,1079.8z M628.9,449.2
			c-79,0-130.6,51.8-130.6,119.9c0,66.6,50.2,119.9,127.6,119.9h1.5c80.5,0,130.5-53.3,130.5-119.9
			C756.3,501,707.8,449.2,628.9,449.2L628.9,449.2z M512,1477.8h230.7v-694H512V1477.8z M512,1477.8"/>
	</g>
</g>
</svg>
