<?xml version="1.0" encoding="utf-8"?>
<!-- Generator: Adobe Illustrator 26.1.0, SVG Export Plug-In . SVG Version: 6.00 Build 0)  -->
<svg version="1.1" id="Calque_1" xmlns="http://www.w3.org/2000/svg" xmlns:xlink="http://www.w3.org/1999/xlink" x="0px" y="0px"
	 viewBox="0 0 2000 2000" style="enable-background:new 0 0 2000 2000;" xml:space="preserve" fill:="#344C9A">
<!-- <style type="text/css">
	.st0{fill:#354C9A;}
	.st1{fill:#344C9A;}
	.st2{fill:#314A7E;}
	.st3{fill:#FFFFFF;}
	.st4{fill:#005983;}
	.st5{fill:#E52D27;}
	.st6{fill-rule:evenodd;clip-rule:evenodd;fill:#FFFFFF;}
</style> -->
<g>
	<path class="st0" d="M1000,80c62.5,0,124.9,6.3,185.5,18.7c59,12.1,117.1,30.1,172.6,53.6c54.5,23,107.1,51.6,156.2,84.8
		c48.7,32.9,94.6,70.7,136.2,112.4c41.7,41.7,79.5,87.5,112.4,136.2c33.2,49.2,61.8,101.7,84.8,156.2
		c23.5,55.5,41.5,113.6,53.6,172.6c12.4,60.6,18.7,123,18.7,185.5s-6.3,124.9-18.7,185.5c-12.1,59-30.1,117.1-53.6,172.6
		c-23,54.5-51.6,107.1-84.8,156.2c-32.9,48.7-70.7,94.6-112.4,136.2c-41.7,41.7-87.5,79.5-136.2,112.4
		c-49.2,33.2-101.7,61.8-156.2,84.8c-55.5,23.5-113.6,41.5-172.6,53.6c-60.6,12.4-123,18.7-185.5,18.7s-124.9-6.3-185.5-18.7
		c-59-12.1-117.1-30.1-172.6-53.6c-54.5-23-107.1-51.6-156.2-84.8c-48.7-32.9-94.6-70.7-136.2-112.4s-79.5-87.5-112.4-136.2
		c-33.2-49.2-61.8-101.7-84.8-156.2c-23.5-55.5-41.5-113.6-53.6-172.6C86.3,1124.9,80,1062.5,80,1000s6.3-124.9,18.7-185.5
		c12.1-59,30.1-117.1,53.6-172.6c23.1-54.5,51.6-107.1,84.8-156.2c32.9-48.7,70.7-94.6,112.4-136.2s87.5-79.5,136.2-112.4
		c49.2-33.2,101.7-61.8,156.2-84.8c55.5-23.5,113.6-41.5,172.6-53.6C875.1,86.3,937.5,80,1000,80 M1000,0C447.7,0,0,447.7,0,1000
		s447.7,1000,1000,1000s1000-447.7,1000-1000S1552.3,0,1000,0L1000,0z"/>
</g>
<g>
	<path class="st0" d="M1463,451.2c-154.1,2.9-308.3,0.8-462.5,0.8c-157.4,0-314.9-0.3-472.3,0.1c-87.3,0.2-145.1,58.7-145.2,146
		c-0.1,208.2-0.2,416.3,0,624.5c0.1,85.9,58.7,144.6,144.3,144.9c82,0.2,163.9,0,245.9,0.1c20,0,47.1-7,58.3,3.1
		c12.9,11.6,2.3,39.1,4.3,59.6c1.2,12-2.5,15.3-14.8,15.1c-45.5-0.8-91.1-0.4-136.6-0.3c-35.1,0.1-58.7,20.5-59.3,50.8
		c-0.6,30.4,22.7,52.7,57.4,52.7c211.4,0.3,422.8,0.2,634.3,0.1c10.4,0,20.7-1.3,30.2-6.5c20-11,30.9-34.7,25.8-56.2
		c-5.7-24.1-25-40.5-50.4-40.8c-47.5-0.6-95-0.8-142.5,0.2c-14.1,0.3-17.8-3.9-16.6-17.3c1.2-14.2,1.3-28.7,0-42.9
		c-1.4-14.7,3.3-18.3,18-18.2c95.6,0.7,191.3,0.5,286.9,0.3c12.3,0,24.9-0.1,36.8-2.6c67.5-14.3,111.1-69.1,111.1-140.4
		c0.2-206.2-1.6-412.5,0.9-618.7C1618.1,519.3,1558.3,449.4,1463,451.2z M1495.3,1217.3c0,26.1-3,29.1-29.2,29.1
		c-155.5,0-311,0-466.5,0c-155.5,0-311,0-466.5,0c-26,0-29-3-29-29.2c0-205,0-409.9,0-614.9c0-26.1,3.1-29.2,29.2-29.2
		c311,0,622,0,933,0c25.9,0,29,3.2,29,29.4C1495.3,807.4,1495.3,1012.4,1495.3,1217.3z"/>
</g>
</svg>
