<?xml version="1.0" encoding="utf-8"?>
<!-- Generator: Adobe Illustrator 26.1.0, SVG Export Plug-In . SVG Version: 6.00 Build 0)  -->
<svg version="1.1" id="Calque_1" xmlns="http://www.w3.org/2000/svg" xmlns:xlink="http://www.w3.org/1999/xlink" x="0px" y="0px"
	 viewBox="0 0 2000 2000" style="enable-background:new 0 0 2000 2000;" xml:space="preserve" fill:="#344C9A">
<!-- <style type="text/css">
	.st0{fill:#354C9A;}
	.st1{fill:#344C9A;}
	.st2{fill:#314A7E;}
	.st3{fill:#FFFFFF;}
	.st4{fill:#005983;}
	.st5{fill:#E52D27;}
	.st6{fill-rule:evenodd;clip-rule:evenodd;fill:#FFFFFF;}
</style> -->
<g>
	<path class="st0" d="M1074.6,1999.5c-52.1,0-104.1,0-156.2,0c-1.6-5.2-6.1-3.7-9.7-4c-212.5-21.1-402.7-97.5-561.5-240.6
		C54.6,1491.3-56.6,1161.8,27.1,777.8c115.6-530,635.8-862.4,1168.9-758.2c411.8,80.5,731.8,417.4,793.3,834.5
		c3.3,22.6,2.1,46,10.7,67.8c0,53.4,0,106.7,0,160.1c-8.3,16.5-6.2,34.8-8.7,52.3c-28.4,198.8-107.3,374.9-240.5,525.1
		c-161.1,181.7-362.1,291.8-602.6,329.2C1123.7,1992.4,1098.4,1991.2,1074.6,1999.5z M1001.2,475.4c-157.4,0-314.9-0.3-472.3,0.1
		c-87.3,0.2-145.1,58.7-145.2,146c-0.1,208.2-0.2,416.3,0,624.5c0.1,85.9,58.7,144.6,144.3,144.9c82,0.2,163.9,0,245.9,0.1
		c20,0,47.1-7,58.3,3.2c12.9,11.6,2.3,39.1,4.3,59.6c1.2,12-2.5,15.3-14.8,15.1c-45.5-0.8-91.1-0.4-136.6-0.3
		c-35.1,0.1-58.7,20.5-59.3,50.8c-0.6,30.4,22.7,52.7,57.4,52.7c211.4,0.3,422.8,0.2,634.3,0.1c10.4,0,20.7-1.3,30.2-6.5
		c20-11,30.9-34.7,25.8-56.2c-5.7-24.1-25-40.5-50.4-40.8c-47.5-0.6-95-0.8-142.5,0.2c-14.1,0.3-17.8-3.9-16.6-17.3
		c1.2-14.2,1.3-28.7,0-42.9c-1.4-14.7,3.3-18.3,18-18.2c95.6,0.7,191.3,0.5,286.9,0.3c12.3,0,24.9-0.1,36.8-2.6
		c67.5-14.3,111.1-69.1,111.1-140.4c0.2-206.2-1.6-412.5,0.9-618.6c1-86.3-58.8-156.2-154.1-154.4
		C1309.6,477.5,1155.4,475.4,1001.2,475.4z"/>
	<path class="st0" d="M1000.3,1269.8c-155.5,0-311,0-466.5,0c-26,0-29-3-29-29.2c0-205,0-409.9,0-614.9c0-26.1,3.1-29.2,29.2-29.2
		c311,0,622,0,933,0c25.9,0,29,3.2,29,29.4c0,205,0,409.9,0,614.9c0,26.1-3,29-29.2,29.1C1311.3,1269.8,1155.8,1269.8,1000.3,1269.8
		z"/>
</g>
</svg>
