<?xml version="1.0" encoding="utf-8"?>
<!-- Generator: Adobe Illustrator 26.1.0, SVG Export Plug-In . SVG Version: 6.00 Build 0)  -->
<svg version="1.1" id="Calque_1" xmlns="http://www.w3.org/2000/svg" xmlns:xlink="http://www.w3.org/1999/xlink" x="0px" y="0px"
	 viewBox="0 0 2000 2000" style="enable-background:new 0 0 2000 2000;" xml:space="preserve" fill:="#344C9A">
<!-- <style type="text/css">
	.st0{fill:#354C9A;}
	.st1{fill:#344C9A;}
	.st2{fill:#314A7E;}
	.st3{fill:#FFFFFF;}
	.st4{fill:#005983;}
	.st5{fill:#E52D27;}
	.st6{fill-rule:evenodd;clip-rule:evenodd;fill:#FFFFFF;}
</style> -->
<path class="st0" d="M1074.6,1999.5c-52.1,0-104.1,0-156.2,0c-2.2-6.1-7.6-3.7-11.6-4.1c-211-21.6-400.1-97.4-558.1-239.2
	C55,1492.6-56.7,1162.6,27.1,777.8C142.4,247.9,662.9-84.6,1196,19.5C1607.8,100,1927.8,437,1989.3,854c3.3,22.6,2.1,46,10.7,67.8
	c0,53.4,0,106.7,0,160.1c-8.3,16.5-6.2,34.8-8.7,52.3c-28.3,198.8-107.2,374.9-240.5,525.2c-161.1,181.7-362.1,291.9-602.6,329.2
	C1123.7,1992.4,1098.4,1991.2,1074.6,1999.5z M401.9,724.5c0,12.4,0,20.8,0,29.2c0,181.6-0.1,363.1,0,544.7
	c0,75.1,43.4,118.3,118.9,118.3c319.5,0.1,639,0.1,958.5,0c76.6,0,119.7-43,119.7-119.5c0.1-180.9,0-361.8,0-542.7
	c0-8.8,0-17.6,0-29.7c-8.9,5.5-14.2,8.8-19.5,12.1c-179.1,111.6-358.3,223.1-537.2,335.1c-28.6,17.9-54.5,18.4-83.3,0.2
	c-110.9-70-222.4-139.1-333.7-208.5C552.1,818.2,478.9,772.6,401.9,724.5z M1589.7,719.2c-7.3-4.8-9.9-6.6-12.6-8.3
	c-188.4-117.5-376.8-234.8-564.9-352.7c-10.7-6.7-17.1-3.6-25.7,1.7c-186.6,116.6-373.3,233-559.9,349.6c-3.8,2.4-10.2,2.8-10.2,9.6
	C805.9,719.2,1195.2,719.2,1589.7,719.2z"/>
</svg>
