<?xml version="1.0" encoding="utf-8"?>
<!-- Generator: Adobe Illustrator 26.1.0, SVG Export Plug-In . SVG Version: 6.00 Build 0)  -->
<svg version="1.1" id="Calque_1" xmlns="http://www.w3.org/2000/svg" xmlns:xlink="http://www.w3.org/1999/xlink" x="0px" y="0px"
	 viewBox="0 0 2000 2000" style="enable-background:new 0 0 2000 2000;" xml:space="preserve" fill:="#344C9A">
<!-- <style type="text/css">
	.st0{fill:#354C9A;}
	.st1{fill:#344C9A;}
	.st2{fill:#314A7E;}
	.st3{fill:#FFFFFF;}
	.st4{fill:#005983;}
	.st5{fill:#E52D27;}
	.st6{fill-rule:evenodd;clip-rule:evenodd;fill:#FFFFFF;}
</style> -->
<g>
	<path class="st0" d="M1000,0C447.7,0,0,447.7,0,1000c0,552.2,447.7,1000,1000,1000c552.2,0,1000-447.8,1000-1000
		C2000,447.7,1552.2,0,1000,0L1000,0z M1528.1,1459.1l-80.1,80.1c-14.3,14.3-56.2,23.2-57.5,23.2c-253.3,2.2-497.2-97.3-676.4-276.5
		c-179.7-179.8-279.3-424.6-276.6-678.7c0-0.1,9.2-40.8,23.4-54.9l80.1-80.1c29.3-29.4,85.6-42.7,125-29.5l16.9,5.6
		c39.3,13.2,80.6,56.6,91.4,96.7l40.3,147.8c10.9,40.2-3.8,97.3-33.1,126.6L728,872.8c52.5,194.3,204.9,346.8,399.3,399.4l53.5-53.5
		c29.4-29.4,86.6-44.1,126.6-33.2l147.8,40.4c40.1,11,83.5,52,96.7,91.3l5.6,17.1C1570.6,1373.6,1557.4,1429.9,1528.1,1459.1
		L1528.1,1459.1z M1528.1,1459.1"/>
</g>
</svg>
